<svg xmlns="http://www.w3.org/2000/svg" width="500" height="500" style="width:100%;height:100%;transform:translate3d(0,0,0);content-visibility:visible" viewBox="0 0 500 500"><defs><clipPath id="e"><path d="M0 0h500v500H0z"></path></clipPath><clipPath id="m"><path d="M0 0h500v500H0z"></path></clipPath><clipPath id="l"><path d="M0 0h500v500H0z"></path></clipPath><clipPath id="j"><path d="M0 0h500v500H0z"></path></clipPath><clipPath id="d"><path d="M0 0h500v500H0z"></path></clipPath><clipPath id="i"><path d="M0 0h500v500H0z"></path></clipPath><clipPath id="h"><path d="M0 0h500v500H0z"></path></clipPath><clipPath id="g"><path d="M0 0h500v500H0z"></path></clipPath><clipPath id="f"><path d="M0 0h500v500H0z"></path></clipPath><filter id="a" width="100%" height="100%" x="0%" y="0%" filterUnits="objectBoundingBox"></filter><mask id="k"><g filter="url(#a)"><path fill="#fff" d="M0 0h500v500H0z" opacity="0"></path><use xmlns:ns1="http://www.w3.org/1999/xlink" ns1:href="#b"></use></g></mask><g id="b" clip-path="url(#d)" style="display:none"><g class="primary design" style="display:none"><path fill-opacity="0" stroke-linecap="round" stroke-linejoin="round" class="primary"></path></g><g class="primary design" style="display:none"><path fill-opacity="0" stroke-linecap="round" stroke-linejoin="round" class="primary"></path></g></g></defs><g clip-path="url(#e)"><g clip-path="url(#f)" style="display:none"><g class="primary design" style="display:none"><path class="primary"></path><path class="primary"></path></g><g class="primary design" style="display:none"><path class="primary"></path></g><g class="primary design" style="display:none"><path fill="none" class="primary"></path></g><g class="primary design" style="display:none"><path fill="none" class="primary"></path></g><g class="primary design" style="display:none"><path fill="none" class="primary"></path></g></g><g clip-path="url(#g)" style="display:none"><g class="primary design" style="display:none"><path class="primary"></path></g><g class="primary design" style="display:none"><path fill="none" class="primary"></path></g></g><g clip-path="url(#h)" style="display:none"><g class="primary design" style="display:none"><path class="primary"></path><path class="primary"></path></g><g class="primary design" style="display:none"><path fill="none" class="primary"></path></g><g class="primary design" style="display:none"><path fill="none" class="primary"></path></g><g class="primary design" style="display:none"><path fill="none" class="primary"></path></g><g class="primary design" style="display:none"><path class="primary"></path><path class="primary"></path></g></g><g clip-path="url(#i)" style="display:none"><g class="primary design" style="display:none"><path class="primary"></path><path class="primary"></path></g><g class="primary design" style="display:none"><path class="primary"></path><path class="primary"></path></g><g class="primary design" style="display:none"><path fill="none" class="primary"></path></g><g class="primary design" style="display:none"><path fill="none" class="primary"></path></g><g class="primary design" style="display:none"><path fill="none" class="primary"></path></g></g><g clip-path="url(#j)" style="display:none"><g class="primary design" style="display:none"><path class="primary"></path><path class="primary"></path></g><g class="primary design" style="display:none"><path class="primary"></path><path class="primary"></path></g><g class="primary design" mask="url(#k)" style="display:none"><path fill="none" class="primary"></path></g><g class="primary design" style="display:none"><path fill="none" class="primary"></path></g><g class="primary design" style="display:none"><path fill="none" class="primary"></path></g></g><g clip-path="url(#l)" style="display:block"><g fill="#121330" class="primary design" style="display:block"><path d="M328.74 171.258c-6.041-6.04-16.04-6.04-22.08 0l-56.658 56.657-56.658-56.657c-6.04-6.04-16.039-6.04-22.08 0s-6.04 16.039 0 22.08l56.658 56.657-56.657 56.658c-6.041 6.04-6.041 16.039 0 22.08 3.124 3.124 7.082 4.582 11.04 4.582s7.915-1.458 11.04-4.582l56.657-56.658 56.658 56.658c3.124 3.124 7.082 4.582 11.04 4.582s7.915-1.458 11.04-4.582c6.04-6.041 6.04-16.04 0-22.08l-56.658-56.658 56.657-56.657c6.041-6.041 6.041-16.04 0-22.08" class="primary"></path><path d="M245.003 41.695c-55.616 1.25-107.483 24.371-145.81 64.573-38.327 40.41-58.74 93.11-57.491 148.726s24.371 107.483 64.573 145.81c39.16 37.286 89.777 57.491 143.519 57.491H255c55.616-1.25 107.483-24.371 145.81-64.573s58.74-93.11 57.49-148.726-24.37-107.483-64.572-145.81c-40.41-38.327-93.318-58.74-148.726-57.491m133.103 330.364c-32.703 34.16-76.654 53.741-123.938 54.783-47.076 1.25-92.277-16.248-126.438-48.743-34.161-32.703-53.742-76.654-54.783-123.938-1.042-47.076 16.247-92.069 48.95-126.23s76.655-53.741 123.939-54.783h4.374c45.618 0 88.736 17.29 122.064 48.95 34.161 32.704 53.741 76.655 54.783 123.94 1.041 46.867-16.247 91.86-48.95 126.02" class="primary"></path></g><g fill="#121330" class="primary design" style="display:none"><path d="M328.74 171.258c-6.041-6.04-16.04-6.04-22.08 0l-56.658 56.657-56.658-56.657c-6.04-6.04-16.039-6.04-22.08 0s-6.04 16.039 0 22.08l56.658 56.657-56.657 56.658c-6.041 6.04-6.041 16.039 0 22.08 3.124 3.124 7.082 4.582 11.04 4.582s7.915-1.458 11.04-4.582l56.657-56.658 56.658 56.658c3.124 3.124 7.082 4.582 11.04 4.582s7.915-1.458 11.04-4.582c6.04-6.041 6.04-16.04 0-22.08l-56.658-56.658 56.657-56.657c6.041-6.041 6.041-16.04 0-22.08" class="primary"></path><path d="M245.003 41.695c-55.616 1.25-107.483 24.371-145.81 64.573-38.327 40.41-58.74 93.11-57.491 148.726s24.371 107.483 64.573 145.81c39.16 37.286 89.777 57.491 143.519 57.491H255c55.616-1.25 107.483-24.371 145.81-64.573s58.74-93.11 57.49-148.726-24.37-107.483-64.572-145.81c-40.41-38.327-93.318-58.74-148.726-57.491m133.103 330.364c-32.703 34.16-76.654 53.741-123.938 54.783-47.076 1.25-92.277-16.248-126.438-48.743-34.161-32.703-53.742-76.654-54.783-123.938-1.042-47.076 16.247-92.069 48.95-126.23s76.655-53.741 123.939-54.783h4.374c45.618 0 88.736 17.29 122.064 48.95 34.161 32.704 53.741 76.655 54.783 123.94 1.041 46.867-16.247 91.86-48.95 126.02" class="primary"></path></g><g class="primary design" style="display:none"><path fill="none" class="primary"></path></g><g class="primary design" style="display:none"><path fill="none" class="primary"></path></g><g class="primary design" style="display:none"><path fill="none" class="primary"></path></g></g><g clip-path="url(#m)" style="display:none"><g class="primary design" style="display:none"><path class="primary"></path><path class="primary"></path></g><g class="primary design" style="display:none"><path fill="none" class="primary"></path></g><g class="primary design" style="display:none"><path fill="none" class="primary"></path></g><g class="primary design" style="display:none"><path fill="none" class="primary"></path></g></g></g></svg>